<mxfile host="app.diagrams.net" agent="Mozilla/5.0 (Windows NT 10.0; Win64; x64) AppleWebKit/537.36 (KHTML, like Gecko) Chrome/133.0.0.0 Safari/537.36 Edg/133.0.0.0" version="26.1.0">
  <diagram name="第 1 页" id="nSIozRHpgoR1Y4G_Cm7_">
    <mxGraphModel dx="2053" dy="674" grid="1" gridSize="10" guides="1" tooltips="1" connect="1" arrows="1" fold="1" page="1" pageScale="1" pageWidth="827" pageHeight="1169" math="0" shadow="0">
      <root>
        <mxCell id="0" />
        <mxCell id="1" parent="0" />
        <mxCell id="9k6aIpb8-pgNCpwRoilh-56" value="仿真方案" style="rounded=0;whiteSpace=wrap;html=1;align=left;verticalAlign=top;dashed=1;" vertex="1" parent="1">
          <mxGeometry x="-50" y="500" width="710" height="420" as="geometry" />
        </mxCell>
        <mxCell id="9k6aIpb8-pgNCpwRoilh-29" value="电脑主机" style="rounded=0;whiteSpace=wrap;html=1;align=left;verticalAlign=top;" vertex="1" parent="1">
          <mxGeometry x="90" y="530" width="510" height="345" as="geometry" />
        </mxCell>
        <mxCell id="9k6aIpb8-pgNCpwRoilh-59" value="游戏程序" style="rounded=0;whiteSpace=wrap;html=1;align=left;verticalAlign=top;" vertex="1" parent="1">
          <mxGeometry x="377.25" y="540" width="182.75" height="170" as="geometry" />
        </mxCell>
        <mxCell id="9k6aIpb8-pgNCpwRoilh-55" value="实物连接" style="rounded=0;whiteSpace=wrap;html=1;align=left;verticalAlign=top;dashed=1;" vertex="1" parent="1">
          <mxGeometry x="-50" y="60" width="710" height="380" as="geometry" />
        </mxCell>
        <mxCell id="9k6aIpb8-pgNCpwRoilh-2" value="电脑主机" style="rounded=0;whiteSpace=wrap;html=1;align=left;verticalAlign=top;" vertex="1" parent="1">
          <mxGeometry x="330" y="120" width="260" height="290" as="geometry" />
        </mxCell>
        <mxCell id="9k6aIpb8-pgNCpwRoilh-27" style="edgeStyle=orthogonalEdgeStyle;rounded=0;orthogonalLoop=1;jettySize=auto;html=1;exitX=1;exitY=0.5;exitDx=0;exitDy=0;entryX=0;entryY=0.5;entryDx=0;entryDy=0;endArrow=classic;startFill=1;startArrow=classic;endFill=1;" edge="1" parent="1" source="9k6aIpb8-pgNCpwRoilh-3" target="9k6aIpb8-pgNCpwRoilh-21">
          <mxGeometry relative="1" as="geometry" />
        </mxCell>
        <mxCell id="9k6aIpb8-pgNCpwRoilh-3" value="USB口" style="rounded=0;whiteSpace=wrap;html=1;fillColor=#fff2cc;strokeColor=#d6b656;" vertex="1" parent="1">
          <mxGeometry x="330" y="340" width="60" height="50" as="geometry" />
        </mxCell>
        <mxCell id="9k6aIpb8-pgNCpwRoilh-4" value="方格" style="shape=table;startSize=30;container=1;collapsible=0;childLayout=tableLayout;strokeColor=default;fontSize=16;" vertex="1" parent="1">
          <mxGeometry x="-20" y="190" width="180" height="180" as="geometry" />
        </mxCell>
        <mxCell id="9k6aIpb8-pgNCpwRoilh-5" value="" style="shape=tableRow;horizontal=0;startSize=0;swimlaneHead=0;swimlaneBody=0;strokeColor=inherit;top=0;left=0;bottom=0;right=0;collapsible=0;dropTarget=0;fillColor=none;points=[[0,0.5],[1,0.5]];portConstraint=eastwest;fontSize=16;" vertex="1" parent="9k6aIpb8-pgNCpwRoilh-4">
          <mxGeometry y="30" width="180" height="50" as="geometry" />
        </mxCell>
        <mxCell id="9k6aIpb8-pgNCpwRoilh-6" value="" style="shape=partialRectangle;html=1;whiteSpace=wrap;connectable=0;strokeColor=inherit;overflow=hidden;fillColor=none;top=0;left=0;bottom=0;right=0;pointerEvents=1;fontSize=16;" vertex="1" parent="9k6aIpb8-pgNCpwRoilh-5">
          <mxGeometry width="60" height="50" as="geometry">
            <mxRectangle width="60" height="50" as="alternateBounds" />
          </mxGeometry>
        </mxCell>
        <mxCell id="9k6aIpb8-pgNCpwRoilh-7" value="" style="shape=partialRectangle;html=1;whiteSpace=wrap;connectable=0;strokeColor=inherit;overflow=hidden;fillColor=none;top=0;left=0;bottom=0;right=0;pointerEvents=1;fontSize=16;" vertex="1" parent="9k6aIpb8-pgNCpwRoilh-5">
          <mxGeometry x="60" width="60" height="50" as="geometry">
            <mxRectangle width="60" height="50" as="alternateBounds" />
          </mxGeometry>
        </mxCell>
        <mxCell id="9k6aIpb8-pgNCpwRoilh-8" value="" style="shape=partialRectangle;html=1;whiteSpace=wrap;connectable=0;strokeColor=inherit;overflow=hidden;fillColor=none;top=0;left=0;bottom=0;right=0;pointerEvents=1;fontSize=16;" vertex="1" parent="9k6aIpb8-pgNCpwRoilh-5">
          <mxGeometry x="120" width="60" height="50" as="geometry">
            <mxRectangle width="60" height="50" as="alternateBounds" />
          </mxGeometry>
        </mxCell>
        <mxCell id="9k6aIpb8-pgNCpwRoilh-9" value="" style="shape=tableRow;horizontal=0;startSize=0;swimlaneHead=0;swimlaneBody=0;strokeColor=inherit;top=0;left=0;bottom=0;right=0;collapsible=0;dropTarget=0;fillColor=none;points=[[0,0.5],[1,0.5]];portConstraint=eastwest;fontSize=16;" vertex="1" parent="9k6aIpb8-pgNCpwRoilh-4">
          <mxGeometry y="80" width="180" height="50" as="geometry" />
        </mxCell>
        <mxCell id="9k6aIpb8-pgNCpwRoilh-10" value="" style="shape=partialRectangle;html=1;whiteSpace=wrap;connectable=0;strokeColor=inherit;overflow=hidden;fillColor=none;top=0;left=0;bottom=0;right=0;pointerEvents=1;fontSize=16;" vertex="1" parent="9k6aIpb8-pgNCpwRoilh-9">
          <mxGeometry width="60" height="50" as="geometry">
            <mxRectangle width="60" height="50" as="alternateBounds" />
          </mxGeometry>
        </mxCell>
        <mxCell id="9k6aIpb8-pgNCpwRoilh-11" value="" style="shape=partialRectangle;html=1;whiteSpace=wrap;connectable=0;strokeColor=inherit;overflow=hidden;fillColor=none;top=0;left=0;bottom=0;right=0;pointerEvents=1;fontSize=16;" vertex="1" parent="9k6aIpb8-pgNCpwRoilh-9">
          <mxGeometry x="60" width="60" height="50" as="geometry">
            <mxRectangle width="60" height="50" as="alternateBounds" />
          </mxGeometry>
        </mxCell>
        <mxCell id="9k6aIpb8-pgNCpwRoilh-12" value="" style="shape=partialRectangle;html=1;whiteSpace=wrap;connectable=0;strokeColor=inherit;overflow=hidden;fillColor=none;top=0;left=0;bottom=0;right=0;pointerEvents=1;fontSize=16;" vertex="1" parent="9k6aIpb8-pgNCpwRoilh-9">
          <mxGeometry x="120" width="60" height="50" as="geometry">
            <mxRectangle width="60" height="50" as="alternateBounds" />
          </mxGeometry>
        </mxCell>
        <mxCell id="9k6aIpb8-pgNCpwRoilh-13" value="" style="shape=tableRow;horizontal=0;startSize=0;swimlaneHead=0;swimlaneBody=0;strokeColor=inherit;top=0;left=0;bottom=0;right=0;collapsible=0;dropTarget=0;fillColor=none;points=[[0,0.5],[1,0.5]];portConstraint=eastwest;fontSize=16;" vertex="1" parent="9k6aIpb8-pgNCpwRoilh-4">
          <mxGeometry y="130" width="180" height="50" as="geometry" />
        </mxCell>
        <mxCell id="9k6aIpb8-pgNCpwRoilh-14" value="" style="shape=partialRectangle;html=1;whiteSpace=wrap;connectable=0;strokeColor=inherit;overflow=hidden;fillColor=none;top=0;left=0;bottom=0;right=0;pointerEvents=1;fontSize=16;" vertex="1" parent="9k6aIpb8-pgNCpwRoilh-13">
          <mxGeometry width="60" height="50" as="geometry">
            <mxRectangle width="60" height="50" as="alternateBounds" />
          </mxGeometry>
        </mxCell>
        <mxCell id="9k6aIpb8-pgNCpwRoilh-15" value="" style="shape=partialRectangle;html=1;whiteSpace=wrap;connectable=0;strokeColor=inherit;overflow=hidden;fillColor=none;top=0;left=0;bottom=0;right=0;pointerEvents=1;fontSize=16;" vertex="1" parent="9k6aIpb8-pgNCpwRoilh-13">
          <mxGeometry x="60" width="60" height="50" as="geometry">
            <mxRectangle width="60" height="50" as="alternateBounds" />
          </mxGeometry>
        </mxCell>
        <mxCell id="9k6aIpb8-pgNCpwRoilh-16" value="" style="shape=partialRectangle;html=1;whiteSpace=wrap;connectable=0;strokeColor=inherit;overflow=hidden;fillColor=none;top=0;left=0;bottom=0;right=0;pointerEvents=1;fontSize=16;" vertex="1" parent="9k6aIpb8-pgNCpwRoilh-13">
          <mxGeometry x="120" width="60" height="50" as="geometry">
            <mxRectangle width="60" height="50" as="alternateBounds" />
          </mxGeometry>
        </mxCell>
        <mxCell id="9k6aIpb8-pgNCpwRoilh-18" style="edgeStyle=orthogonalEdgeStyle;rounded=0;orthogonalLoop=1;jettySize=auto;html=1;exitX=1;exitY=0.5;exitDx=0;exitDy=0;entryX=0;entryY=0.5;entryDx=0;entryDy=0;endArrow=classic;startFill=1;startArrow=classic;endFill=1;" edge="1" parent="1" source="9k6aIpb8-pgNCpwRoilh-17" target="9k6aIpb8-pgNCpwRoilh-3">
          <mxGeometry relative="1" as="geometry" />
        </mxCell>
        <mxCell id="9k6aIpb8-pgNCpwRoilh-17" value="422串口" style="rounded=0;whiteSpace=wrap;html=1;" vertex="1" parent="1">
          <mxGeometry x="100" y="180" width="60" height="40" as="geometry" />
        </mxCell>
        <mxCell id="9k6aIpb8-pgNCpwRoilh-19" value="" style="endArrow=none;html=1;rounded=0;exitX=0;exitY=0.5;exitDx=0;exitDy=0;entryX=1;entryY=0.5;entryDx=0;entryDy=0;" edge="1" parent="1" source="9k6aIpb8-pgNCpwRoilh-2" target="9k6aIpb8-pgNCpwRoilh-2">
          <mxGeometry width="50" height="50" relative="1" as="geometry">
            <mxPoint x="390" y="320" as="sourcePoint" />
            <mxPoint x="440" y="270" as="targetPoint" />
          </mxGeometry>
        </mxCell>
        <mxCell id="9k6aIpb8-pgNCpwRoilh-20" value="COM口设备" style="rounded=0;whiteSpace=wrap;html=1;fillColor=#fff2cc;strokeColor=#d6b656;" vertex="1" parent="1">
          <mxGeometry x="424.5" y="260" width="71" height="50" as="geometry" />
        </mxCell>
        <mxCell id="9k6aIpb8-pgNCpwRoilh-28" style="edgeStyle=orthogonalEdgeStyle;rounded=0;orthogonalLoop=1;jettySize=auto;html=1;exitX=0.5;exitY=0;exitDx=0;exitDy=0;entryX=0.5;entryY=1;entryDx=0;entryDy=0;endArrow=classic;startFill=1;startArrow=classic;endFill=1;" edge="1" parent="1" source="9k6aIpb8-pgNCpwRoilh-21" target="9k6aIpb8-pgNCpwRoilh-20">
          <mxGeometry relative="1" as="geometry" />
        </mxCell>
        <mxCell id="9k6aIpb8-pgNCpwRoilh-21" value="usb串口驱动程序" style="rounded=0;whiteSpace=wrap;html=1;" vertex="1" parent="1">
          <mxGeometry x="422.75" y="335" width="74.5" height="60" as="geometry" />
        </mxCell>
        <mxCell id="9k6aIpb8-pgNCpwRoilh-24" style="edgeStyle=orthogonalEdgeStyle;rounded=0;orthogonalLoop=1;jettySize=auto;html=1;exitX=0.5;exitY=1;exitDx=0;exitDy=0;entryX=0.5;entryY=0;entryDx=0;entryDy=0;endArrow=classic;startFill=1;startArrow=classic;endFill=1;" edge="1" parent="1" source="9k6aIpb8-pgNCpwRoilh-22" target="9k6aIpb8-pgNCpwRoilh-23">
          <mxGeometry relative="1" as="geometry" />
        </mxCell>
        <mxCell id="9k6aIpb8-pgNCpwRoilh-22" value="上层游戏程序" style="rounded=0;whiteSpace=wrap;html=1;" vertex="1" parent="1">
          <mxGeometry x="400" y="130" width="120" height="50" as="geometry" />
        </mxCell>
        <mxCell id="9k6aIpb8-pgNCpwRoilh-25" style="edgeStyle=orthogonalEdgeStyle;rounded=0;orthogonalLoop=1;jettySize=auto;html=1;exitX=0.5;exitY=1;exitDx=0;exitDy=0;entryX=0.5;entryY=0;entryDx=0;entryDy=0;endArrow=classic;startFill=1;startArrow=classic;endFill=1;" edge="1" parent="1" source="9k6aIpb8-pgNCpwRoilh-23" target="9k6aIpb8-pgNCpwRoilh-20">
          <mxGeometry relative="1" as="geometry" />
        </mxCell>
        <mxCell id="9k6aIpb8-pgNCpwRoilh-23" value="串口收发组件" style="rounded=0;whiteSpace=wrap;html=1;" vertex="1" parent="1">
          <mxGeometry x="400" y="210" width="120" height="30" as="geometry" />
        </mxCell>
        <mxCell id="9k6aIpb8-pgNCpwRoilh-47" value="" style="endArrow=none;html=1;rounded=0;exitX=0;exitY=0.5;exitDx=0;exitDy=0;entryX=1;entryY=0.5;entryDx=0;entryDy=0;" edge="1" parent="1">
          <mxGeometry width="50" height="50" relative="1" as="geometry">
            <mxPoint x="90" y="740" as="sourcePoint" />
            <mxPoint x="600" y="740" as="targetPoint" />
          </mxGeometry>
        </mxCell>
        <mxCell id="9k6aIpb8-pgNCpwRoilh-48" value="COM口设备" style="rounded=0;whiteSpace=wrap;html=1;fillColor=#fff2cc;strokeColor=#d6b656;" vertex="1" parent="1">
          <mxGeometry x="434.5" y="725" width="71" height="50" as="geometry" />
        </mxCell>
        <mxCell id="9k6aIpb8-pgNCpwRoilh-49" style="edgeStyle=orthogonalEdgeStyle;rounded=0;orthogonalLoop=1;jettySize=auto;html=1;exitX=1;exitY=0.5;exitDx=0;exitDy=0;entryX=0.5;entryY=1;entryDx=0;entryDy=0;endArrow=classic;startFill=1;startArrow=classic;endFill=1;" edge="1" parent="1" source="9k6aIpb8-pgNCpwRoilh-50" target="9k6aIpb8-pgNCpwRoilh-48">
          <mxGeometry relative="1" as="geometry" />
        </mxCell>
        <mxCell id="9k6aIpb8-pgNCpwRoilh-62" style="edgeStyle=orthogonalEdgeStyle;rounded=0;orthogonalLoop=1;jettySize=auto;html=1;exitX=0;exitY=0.5;exitDx=0;exitDy=0;entryX=0.5;entryY=1;entryDx=0;entryDy=0;startArrow=classic;startFill=1;" edge="1" parent="1" source="9k6aIpb8-pgNCpwRoilh-50" target="9k6aIpb8-pgNCpwRoilh-61">
          <mxGeometry relative="1" as="geometry" />
        </mxCell>
        <mxCell id="9k6aIpb8-pgNCpwRoilh-50" value="虚拟串口对驱动" style="rounded=0;whiteSpace=wrap;html=1;fillColor=#f5f5f5;fontColor=#333333;strokeColor=#666666;" vertex="1" parent="1">
          <mxGeometry x="300" y="810" width="82.25" height="60" as="geometry" />
        </mxCell>
        <mxCell id="9k6aIpb8-pgNCpwRoilh-51" style="edgeStyle=orthogonalEdgeStyle;rounded=0;orthogonalLoop=1;jettySize=auto;html=1;exitX=0.5;exitY=1;exitDx=0;exitDy=0;entryX=0.5;entryY=0;entryDx=0;entryDy=0;endArrow=classic;startFill=1;startArrow=classic;endFill=1;" edge="1" parent="1" source="9k6aIpb8-pgNCpwRoilh-52" target="9k6aIpb8-pgNCpwRoilh-54">
          <mxGeometry relative="1" as="geometry" />
        </mxCell>
        <mxCell id="9k6aIpb8-pgNCpwRoilh-52" value="上层游戏程序" style="rounded=0;whiteSpace=wrap;html=1;" vertex="1" parent="1">
          <mxGeometry x="410" y="595" width="120" height="50" as="geometry" />
        </mxCell>
        <mxCell id="9k6aIpb8-pgNCpwRoilh-53" style="edgeStyle=orthogonalEdgeStyle;rounded=0;orthogonalLoop=1;jettySize=auto;html=1;exitX=0.5;exitY=1;exitDx=0;exitDy=0;entryX=0.5;entryY=0;entryDx=0;entryDy=0;endArrow=classic;startFill=1;startArrow=classic;endFill=1;" edge="1" parent="1" source="9k6aIpb8-pgNCpwRoilh-54" target="9k6aIpb8-pgNCpwRoilh-48">
          <mxGeometry relative="1" as="geometry" />
        </mxCell>
        <mxCell id="9k6aIpb8-pgNCpwRoilh-54" value="串口收发组件" style="rounded=0;whiteSpace=wrap;html=1;" vertex="1" parent="1">
          <mxGeometry x="410" y="665" width="120" height="30" as="geometry" />
        </mxCell>
        <mxCell id="9k6aIpb8-pgNCpwRoilh-60" value="模拟器程序" style="rounded=0;whiteSpace=wrap;html=1;align=left;verticalAlign=top;" vertex="1" parent="1">
          <mxGeometry x="140" y="550" width="182.75" height="160" as="geometry" />
        </mxCell>
        <mxCell id="9k6aIpb8-pgNCpwRoilh-57" value="模拟器程序" style="rounded=0;whiteSpace=wrap;html=1;" vertex="1" parent="1">
          <mxGeometry x="171.38" y="590" width="120" height="50" as="geometry" />
        </mxCell>
        <mxCell id="9k6aIpb8-pgNCpwRoilh-64" style="edgeStyle=orthogonalEdgeStyle;rounded=0;orthogonalLoop=1;jettySize=auto;html=1;exitX=0.5;exitY=0;exitDx=0;exitDy=0;entryX=0.5;entryY=1;entryDx=0;entryDy=0;startArrow=classic;startFill=1;" edge="1" parent="1" source="9k6aIpb8-pgNCpwRoilh-58" target="9k6aIpb8-pgNCpwRoilh-57">
          <mxGeometry relative="1" as="geometry" />
        </mxCell>
        <mxCell id="9k6aIpb8-pgNCpwRoilh-58" value="串口收发组件" style="rounded=0;whiteSpace=wrap;html=1;" vertex="1" parent="1">
          <mxGeometry x="171.38" y="665" width="120" height="30" as="geometry" />
        </mxCell>
        <mxCell id="9k6aIpb8-pgNCpwRoilh-63" style="edgeStyle=orthogonalEdgeStyle;rounded=0;orthogonalLoop=1;jettySize=auto;html=1;exitX=0.5;exitY=0;exitDx=0;exitDy=0;entryX=0.5;entryY=1;entryDx=0;entryDy=0;startArrow=classic;startFill=1;" edge="1" parent="1" source="9k6aIpb8-pgNCpwRoilh-61" target="9k6aIpb8-pgNCpwRoilh-58">
          <mxGeometry relative="1" as="geometry" />
        </mxCell>
        <mxCell id="9k6aIpb8-pgNCpwRoilh-61" value="COM口设备" style="rounded=0;whiteSpace=wrap;html=1;fillColor=#fff2cc;strokeColor=#d6b656;" vertex="1" parent="1">
          <mxGeometry x="195.88" y="725" width="71" height="50" as="geometry" />
        </mxCell>
      </root>
    </mxGraphModel>
  </diagram>
</mxfile>
